Coordinates
version=1
nRows=17
nColumns=24
inDegrees=yes

Units are S.I. units (second, meters, Newtons, ...)
If the header above contains a line with 'inDegrees', this indicates whether rotational values are in degrees (yes) or radians (no).

endheader
time	pelvis_tilt	pelvis_list	pelvis_rotation	pelvis_tx	pelvis_ty	pelvis_tz	hip_flexion_r	hip_adduction_r	hip_rotation_r	knee_angle_r	ankle_angle_r	subtalar_angle_r	mtp_angle_r	hip_flexion_l	hip_adduction_l	hip_rotation_l	knee_angle_l	ankle_angle_l	subtalar_angle_l	mtp_angle_l	lumbar_extension	lumbar_bending	lumbar_rotation
      2.19500000	      9.89063805	      1.66225016	   -179.07190421	      0.28402362	      0.59754552	     -1.22182469	     64.44904986	    -27.71071901	    -13.91245607	    -97.50543812	     38.53356513	     10.62533040	      0.00000000	     67.77580358	    -30.84596019	     -6.43108162	    -96.07198045	     36.83628633	     17.17626228	      0.00000000	     -9.84353690	      0.62287858	      2.60380556
      2.20000000	      9.92278275	      1.65449105	   -179.06273949	      0.28399399	      0.59958366	     -1.22182285	     64.22759264	    -27.64270609	    -14.02411682	    -97.09345121	     38.36069750	     10.60571145	      0.00000000	     67.53224172	    -30.82283898	     -6.62590428	    -95.72143676	     36.58991960	     17.21112907	      0.00000000	     -9.77127804	      0.62410797	      2.59290713
      2.20500000	      9.95834661	      1.63389045	   -179.02481433	      0.28398390	      0.60170008	     -1.22182377	     63.99274585	    -27.60348448	    -14.14804633	    -96.66039259	     38.13417069	     10.57305414	      0.00000000	     67.25596482	    -30.76492552	     -6.85819379	    -95.22037755	     36.48271128	     17.26929300	      0.00000000	     -9.69267248	      0.60787174	      2.55466132
      2.21000000	     10.01056620	      1.61965225	   -178.98676004	      0.28399138	      0.60385344	     -1.22181503	     63.76740207	    -27.55256681	    -14.27438249	    -96.21013419	     37.95650743	     10.53732525	      0.00000000	     66.99705147	    -30.70397541	     -7.10142732	    -94.71058715	     36.23396760	     17.25950944	      0.00000000	     -9.60016478	      0.60210908	      2.46010534
      2.21500000	     10.01203611	      1.57265975	   -178.96237770	      0.28391121	      0.60609665	     -1.22176800	     63.50606255	    -27.51652054	    -14.36573101	    -95.76523286	     37.74696820	     10.44964952	      0.00000000	     66.65795240	    -30.64548792	     -7.36909816	    -94.25545035	     36.02908642	     17.24083604	      0.00000000	     -9.57401658	      0.55388252	      2.47541275
      2.22000000	     10.16861358	      1.59046107	   -178.80958062	      0.28453802	      0.60866547	     -1.22219352	     63.34916500	    -27.42720936	    -14.58969968	    -95.22573714	     37.44941250	     10.18918483	      0.00000000	     66.58150217	    -30.47151318	     -7.46357241	    -93.63556966	     35.63460967	     17.21374377	      0.00000000	     -9.45993220	      0.50855673	      2.38004824
      2.22500000	     10.23447677	      1.67478089	   -179.00887514	      0.28404329	      0.61052830	     -1.22216079	     63.15552058	    -27.17485227	    -14.70779344	    -94.81981795	     37.24424768	     10.23647765	      0.00000000	     66.36139341	    -30.72988649	     -7.67290921	    -93.34356084	     35.49588163	     17.28589342	      0.00000000	     -9.27245562	      0.62516063	      2.54736300
      2.23000000	     10.37062213	      1.68677415	   -178.86930481	      0.28458451	      0.61320429	     -1.22253699	     62.95049709	    -27.09522100	    -14.93369114	    -94.24834305	     36.98699744	     10.10275554	      0.00000000	     66.22256890	    -30.56646642	     -7.80489086	    -92.70394745	     35.15102894	     17.36881780	      0.00000000	     -9.17696194	      0.58072950	      2.44965656
      2.23500000	     10.41513027	      1.69500896	   -178.81241795	      0.28459161	      0.61572426	     -1.22261068	     62.64867696	    -27.01227282	    -15.10737591	    -93.70903051	     36.75358813	      9.99291939	      0.00000000	     65.92363315	    -30.49545201	     -8.02573469	    -92.13496194	     34.92760671	     17.37833450	      0.00000000	     -9.09413435	      0.58407195	      2.40079748
      2.24000000	     10.34703748	      1.64440344	   -178.86147144	      0.28397185	      0.61803708	     -1.22215737	     62.27176212	    -26.99860400	    -15.17223881	    -93.23754797	     36.60517840	     10.09987211	      0.00000000	     65.42006935	    -30.49855207	     -8.38408455	    -91.71776877	     34.83752251	     17.46128520	      0.00000000	     -9.04992456	      0.59889681	      2.43807730
      2.24500000	     10.41846650	      1.62979171	   -178.80660619	      0.28393338	      0.62057958	     -1.22212089	     62.01361668	    -26.95471766	    -15.33702558	    -92.70334272	     36.34348578	     10.09626576	      0.00000000	     65.13824472	    -30.40061310	     -8.61269794	    -91.16339432	     34.56709998	     17.50703931	      0.00000000	     -8.92831252	      0.58362224	      2.39782136
      2.25000000	     10.46794270	      1.63684319	   -178.80021631	      0.28381022	      0.62326406	     -1.22201821	     61.71366744	    -26.86686659	    -15.51259709	    -92.14089546	     36.08172554	     10.06571546	      0.00000000	     64.83125540	    -30.35992339	     -8.83983781	    -90.71142806	     34.20174043	     17.49922886	      0.00000000	     -8.82258865	      0.61530450	      2.40115644
      2.25500000	     10.49475424	      1.61429378	   -178.80781853	      0.28372835	      0.62598554	     -1.22194962	     61.41085408	    -26.77725465	    -15.65094361	    -91.57460057	     35.81130033	      9.93949451	      0.00000000	     64.45438912	    -30.30828489	     -9.13660514	    -90.12731856	     33.94280010	     17.46143334	      0.00000000	     -8.74810369	      0.60317954	      2.42141016
      2.26000000	     10.64687488	      1.54718429	   -178.66045601	      0.28429933	      0.62902170	     -1.22223915	     61.21141158	    -26.74326089	    -15.80752146	    -90.90537562	     35.47559768	      9.89458498	      0.00000000	     64.35816854	    -30.01371641	     -8.96982954	    -89.18003703	     33.04780281	     17.76663210	      0.00000000	     -8.63595135	      0.48964251	      2.26063151
      2.26500000	     10.64912797	      1.54403174	   -178.72807130	      0.28369016	      0.63151781	     -1.22179669	     60.85370626	    -26.67275636	    -15.94346801	    -90.35477794	     35.20313023	      9.91162835	      0.00000000	     63.93434313	    -30.02738356	     -9.27504893	    -88.72040715	     32.89153916	     17.83400863	      0.00000000	     -8.49045774	      0.55478542	      2.36585962
      2.27000000	     10.74196559	      1.53883467	   -178.59569441	      0.28407302	      0.63465960	     -1.22217898	     60.54695359	    -26.58442801	    -16.17275147	    -89.68636029	     34.90143038	      9.83822448	      0.00000000	     63.66022029	    -29.85083532	     -9.46212884	    -87.97729742	     32.49176724	     17.88302340	      0.00000000	     -8.41578288	      0.49163038	      2.25326333
      2.27500000	     10.68546088	      1.53666801	   -178.68746755	      0.28341078	      0.63736621	     -1.22172270	     60.12689230	    -26.49324233	    -16.30720600	    -89.12135127	     34.67067345	      9.80395175	      0.00000000	     63.14261558	    -29.88744124	     -9.80397923	    -87.49577134	     32.34838489	     17.85212226	      0.00000000	     -8.34566593	      0.55958533	      2.32288970
